<svg xmlns="http://www.w3.org/2000/svg" viewBox="0 0 1200 900" preserveAspectRatio="xMidYMid slice">
  <defs>
    <radialGradient id="bg5" cx="0.5" cy="0.5" r="0.8">
      <stop offset="0%" stop-color="#2A2A2D"/>
      <stop offset="60%" stop-color="#1E1E1E"/>
      <stop offset="100%" stop-color="#161616"/>
    </radialGradient>
    <radialGradient id="goldGlow" cx="0.5" cy="0.5" r="0.5">
      <stop offset="0%" stop-color="#C9A86A" stop-opacity="0.5"/>
      <stop offset="100%" stop-color="#C9A86A" stop-opacity="0"/>
    </radialGradient>
  </defs>
  <rect width="1200" height="900" fill="url(#bg5)"/>

  <!-- Concentric rings (analysis layers) -->
  <g fill="none" stroke="#C9A86A">
    <circle cx="600" cy="450" r="380" stroke-opacity="0.10" stroke-width="1"/>
    <circle cx="600" cy="450" r="320" stroke-opacity="0.18" stroke-width="1"/>
    <circle cx="600" cy="450" r="260" stroke-opacity="0.28" stroke-width="1"/>
    <circle cx="600" cy="450" r="200" stroke-opacity="0.45" stroke-width="1.5"/>
    <circle cx="600" cy="450" r="140" stroke-opacity="0.55" stroke-width="1.5"/>
    <circle cx="600" cy="450" r="80"  stroke-opacity="0.7"  stroke-width="2"/>
  </g>

  <!-- Tick marks along outer ring -->
  <g stroke="#C9A86A" stroke-opacity="0.45" stroke-width="1.5">
    <line x1="600" y1="70" x2="600" y2="110"/>
    <line x1="600" y1="790" x2="600" y2="830"/>
    <line x1="220" y1="450" x2="180" y2="450"/>
    <line x1="980" y1="450" x2="1020" y2="450"/>
    <line x1="869" y1="181" x2="897" y2="153"/>
    <line x1="331" y1="181" x2="303" y2="153"/>
    <line x1="869" y1="719" x2="897" y2="747"/>
    <line x1="331" y1="719" x2="303" y2="747"/>
  </g>

  <!-- Radial spokes from centre -->
  <g stroke="#5C7889" stroke-opacity="0.20" stroke-width="1">
    <line x1="600" y1="450" x2="600" y2="70"/>
    <line x1="600" y1="450" x2="980" y2="450"/>
    <line x1="600" y1="450" x2="600" y2="830"/>
    <line x1="600" y1="450" x2="220" y2="450"/>
    <line x1="600" y1="450" x2="869" y2="181"/>
    <line x1="600" y1="450" x2="331" y2="181"/>
    <line x1="600" y1="450" x2="869" y2="719"/>
    <line x1="600" y1="450" x2="331" y2="719"/>
  </g>

  <!-- Central glow + node -->
  <circle cx="600" cy="450" r="120" fill="url(#goldGlow)"/>
  <circle cx="600" cy="450" r="10" fill="#C9A86A"/>

  <!-- Layer label dots along a single spoke -->
  <g fill="#C9A86A">
    <circle cx="600" cy="370" r="4"/>
    <circle cx="600" cy="310" r="4"/>
    <circle cx="600" cy="250" r="4"/>
    <circle cx="600" cy="190" r="4"/>
    <circle cx="600" cy="130" r="4"/>
  </g>

  <!-- Subtle frame brackets -->
  <g fill="none" stroke="#C9A86A" stroke-opacity="0.5" stroke-width="2">
    <path d="M 70,70 H 130 M 70,70 V 130"/>
    <path d="M 1130,70 H 1070 M 1130,70 V 130"/>
    <path d="M 70,830 H 130 M 70,830 V 770"/>
    <path d="M 1130,830 H 1070 M 1130,830 V 770"/>
  </g>
</svg>
