<svg xmlns="http://www.w3.org/2000/svg" viewBox="0 0 1200 900" preserveAspectRatio="xMidYMid slice">
  <defs>
    <linearGradient id="bg1" x1="0" y1="0" x2="1" y2="1">
      <stop offset="0%" stop-color="#161C23"/>
      <stop offset="100%" stop-color="#1B222B"/>
    </linearGradient>
    <linearGradient id="goldFade" x1="0" y1="0" x2="1" y2="0">
      <stop offset="0%" stop-color="#5494A8" stop-opacity="0.9"/>
      <stop offset="100%" stop-color="#5494A8" stop-opacity="0.15"/>
    </linearGradient>
    <linearGradient id="tealFade" x1="0" y1="0" x2="1" y2="0">
      <stop offset="0%" stop-color="#9BA6B0" stop-opacity="0.7"/>
      <stop offset="100%" stop-color="#9BA6B0" stop-opacity="0.1"/>
    </linearGradient>
    <linearGradient id="ray" x1="0" y1="0" x2="1" y2="1">
      <stop offset="0%" stop-color="#5494A8" stop-opacity="0"/>
      <stop offset="50%" stop-color="#5494A8" stop-opacity="0.25"/>
      <stop offset="100%" stop-color="#5494A8" stop-opacity="0"/>
    </linearGradient>
  </defs>
  <rect width="1200" height="900" fill="url(#bg1)"/>

  <!-- Faint grid -->
  <g stroke="#5494A8" stroke-opacity="0.06" stroke-width="1">
    <line x1="0" y1="150" x2="1200" y2="150"/><line x1="0" y1="300" x2="1200" y2="300"/>
    <line x1="0" y1="450" x2="1200" y2="450"/><line x1="0" y1="600" x2="1200" y2="600"/>
    <line x1="0" y1="750" x2="1200" y2="750"/>
    <line x1="200" y1="0" x2="200" y2="900"/><line x1="400" y1="0" x2="400" y2="900"/>
    <line x1="600" y1="0" x2="600" y2="900"/><line x1="800" y1="0" x2="800" y2="900"/>
    <line x1="1000" y1="0" x2="1000" y2="900"/>
  </g>

  <!-- Vertical "cost bars" of varying heights -->
  <g>
    <rect x="160"  y="500" width="60" height="280" fill="url(#goldFade)"/>
    <rect x="240"  y="380" width="60" height="400" fill="url(#tealFade)"/>
    <rect x="320"  y="450" width="60" height="330" fill="url(#goldFade)"/>
    <rect x="400"  y="280" width="60" height="500" fill="url(#tealFade)"/>
    <rect x="480"  y="340" width="60" height="440" fill="url(#goldFade)"/>
    <rect x="560"  y="200" width="60" height="580" fill="url(#tealFade)"/>
    <rect x="640"  y="320" width="60" height="460" fill="url(#goldFade)"/>
    <rect x="720"  y="430" width="60" height="350" fill="url(#tealFade)"/>
    <rect x="800"  y="260" width="60" height="520" fill="url(#goldFade)"/>
    <rect x="880"  y="380" width="60" height="400" fill="url(#tealFade)"/>
    <rect x="960"  y="500" width="60" height="280" fill="url(#goldFade)"/>
  </g>

  <!-- Diagonal ray across the composition -->
  <rect x="0" y="-200" width="1800" height="220" fill="url(#ray)" transform="rotate(-12 600 450)"/>

  <!-- Outline accent boxes (atlas layers) -->
  <g fill="none" stroke="#5494A8" stroke-opacity="0.5" stroke-width="1.5">
    <rect x="120" y="170" width="940" height="640" rx="2"/>
    <rect x="150" y="200" width="900" height="600" rx="2" stroke-opacity="0.25"/>
  </g>

  <!-- Tiny marker dots -->
  <g fill="#5494A8">
    <circle cx="190" cy="500" r="3"/><circle cx="430" cy="280" r="3"/>
    <circle cx="590" cy="200" r="3"/><circle cx="830" cy="260" r="3"/>
    <circle cx="990" cy="500" r="3"/>
  </g>
</svg>
